<?xml version="1.0" encoding="utf-8"?>
<!-- Generator: Adobe Illustrator 21.0.0, SVG Export Plug-In . SVG Version: 6.00 Build 0)  -->
<svg version="1.1" id="Layer_1" xmlns="http://www.w3.org/2000/svg" xmlns:xlink="http://www.w3.org/1999/xlink" x="0px" y="0px"
	 viewBox="0 0 25.6 25.7" style="enable-background:new 0 0 25.6 25.7;" xml:space="preserve">
<style type="text/css">
	.st0{fill:url(#SVGID_1_);}
	.st1{fill:url(#SVGID_2_);}
	.st2{fill:url(#SVGID_3_);}
	.st3{fill:url(#SVGID_4_);}
	.st4{fill:url(#SVGID_5_);}
	.st5{fill:url(#SVGID_6_);}
</style>
<g>
	
		<linearGradient id="SVGID_1_" gradientUnits="userSpaceOnUse" x1="0.3" y1="6.7487" x2="25.3" y2="6.7487" gradientTransform="matrix(1 0 0 -1 0 19.6)">
		<stop  offset="0" style="stop-color:#fff"/>
        <stop  offset="1" style="stop-color:#fff"/>
	</linearGradient>
	<path class="st0" d="M12.8,25.4c-1.7,0-3.3,0-5,0c-3.8,0.1-7.1-2.7-7.5-6.7c0-0.3,0-0.5,0-0.8c0-3.4,0-6.7,0-10.1
		c0-3.9,2.8-7,6.7-7.5c0.3,0,0.5,0,0.8,0c3.4,0,6.8,0,10.1,0c3.9,0,7,2.8,7.4,6.7c0,0.2,0,0.5,0,0.7c0,3.4,0,6.8,0,10.2
		c0,3.9-2.9,7-6.7,7.4c-1.1,0.1-2.1,0-3.2,0C14.6,25.4,13.7,25.4,12.8,25.4z M23.1,12.9c0-1.6,0-3.3,0-4.9c0-0.4,0-0.8-0.1-1.2
		c-0.5-2.4-2.5-4.1-5-4.1c-3.4,0-6.9,0-10.3,0c-0.3,0-0.7,0-1,0.1C4.2,3.3,2.6,5.3,2.6,7.9c0,3.4,0,6.7,0,10.1c0,0.4,0,0.8,0.1,1.1
		c0.5,2.4,2.5,4.1,5,4.1c3.4,0,6.9,0,10.3,0c0.3,0,0.7,0,1-0.1c2.4-0.5,4.1-2.5,4.1-5.1C23.1,16.2,23.1,14.6,23.1,12.9z"/>
	
		<linearGradient id="SVGID_2_" gradientUnits="userSpaceOnUse" x1="0" y1="6.75" x2="25.6" y2="6.75" gradientTransform="matrix(1 0 0 -1 0 19.6)">
             <stop  offset="0" style="stop-color:#fff"/>
             <stop  offset="1" style="stop-color:#fff"/>
	</linearGradient>
	<path class="st1" d="M17.3,25.7c-0.3,0-0.6,0-0.9,0s-0.6,0-1,0c-0.6,0-1.2,0-1.8,0h-0.8c-0.5,0-1,0-1.6,0c-1.1,0-2.3,0-3.4,0
		c-1.9,0-3.8-0.6-5.2-1.9c-1.5-1.3-2.4-3.1-2.6-5.1c0-0.2,0-0.5,0-0.7v-0.1c0-3.4,0-6.7,0-10.1c0-2,0.7-3.8,2-5.3C3.3,1.1,5,0.2,7,0
		c0.2,0,0.5,0,0.7,0h0.1h1.7c2.8,0,5.6,0,8.4,0c2,0,3.8,0.7,5.2,2c1.4,1.3,2.3,3,2.5,5c0,0.2,0,0.4,0,0.7v0.1v2c0,2.7,0,5.4,0,8.1
		c0,2-0.7,3.8-2,5.2c-1.3,1.4-3.1,2.3-5,2.5C18.2,25.7,17.8,25.7,17.3,25.7z M15.5,25.1c0.3,0,0.6,0,0.9,0c0.7,0,1.5,0,2.2,0
		c3.6-0.3,6.4-3.4,6.4-7.1c0-2.7,0-5.5,0-8.1v-2V7.8c0-0.2,0-0.4,0-0.6c-0.4-3.7-3.4-6.4-7.1-6.4c-2.8,0-5.6,0-8.4,0H7.8H7.7
		c-0.2,0-0.4,0-0.6,0C3.4,1.2,0.7,4.2,0.7,8c0,3.4,0,6.7,0,10.1v0.1c0,0.2,0,0.4,0,0.7c0.4,3.7,3.5,6.5,7.2,6.4c1.1,0,2.3,0,3.4,0
		c0.5,0,1,0,1.6,0h0.8C14.3,25.1,14.9,25.1,15.5,25.1L15.5,25.1z M11.9,23.5c-1.4,0-2.8,0-4.2,0c-2.6,0-4.8-1.8-5.3-4.3
		c-0.1-0.4-0.1-0.8-0.1-1.2c0-3.9,0-7.1,0-10.1c0-1.3,0.4-2.5,1.2-3.5s1.9-1.6,3.2-1.9c0.4-0.1,0.7-0.1,1.1-0.1c0.6,0,1.3,0,1.9,0
		c2.8,0,5.6,0,8.4,0c2.6,0,4.8,1.8,5.3,4.4c0.1,0.4,0.1,0.8,0.1,1.3c0,1.2,0,2.4,0,3.6c0,0.4,0,0.9,0,1.3l0,0c0,0.5,0,1,0,1.6
		c0,1.1,0,2.3,0,3.5c0,1.3-0.4,2.5-1.2,3.5c-0.8,1-1.9,1.6-3.1,1.9c-0.4,0.1-0.7,0.1-1.1,0.1h-1.5C14.9,23.4,13.4,23.5,11.9,23.5z
		 M13.8,2.9c-1.4,0-2.9,0-4.3,0c-0.6,0-1.3,0-1.9,0C7.3,2.9,7,2.9,6.7,3C4.4,3.5,2.9,5.4,2.9,7.8c0,3,0,6.2,0,10.1
		c0,0.4,0,0.7,0.1,1.1c0.5,2.3,2.4,3.8,4.7,3.8c2.9,0,5.9,0,8.7,0h1.5c0.3,0,0.6,0,1-0.1c2.3-0.5,3.8-2.4,3.8-4.8c0-1.2,0-2.3,0-3.5
		c0-0.5,0-1,0-1.6c0-0.4,0-0.9,0-1.3c0-1.2,0-2.4,0-3.6c0-0.5,0-0.8-0.1-1.1C22.1,4.5,20.2,3,17.9,3C16.6,2.9,15.2,2.9,13.8,2.9z"/>
</g>
<g>
	
		<linearGradient id="SVGID_3_" gradientUnits="userSpaceOnUse" x1="6" y1="6.7" x2="19.7" y2="6.7" gradientTransform="matrix(1 0 0 -1 0 19.6)">
             <stop  offset="0" style="stop-color:#fff"/>
             <stop  offset="1" style="stop-color:#fff"/>
	</linearGradient>
	<path class="st2" d="M12.8,19.7C9,19.7,6,16.6,6,12.9c0-3.8,3.1-6.8,6.9-6.8s6.8,3.1,6.8,6.9C19.7,16.7,16.6,19.7,12.8,19.7z
		 M17.4,12.9c0-2.5-2-4.5-4.5-4.6c-2.5,0-4.5,2-4.6,4.5c0,2.5,2,4.6,4.5,4.6S17.4,15.4,17.4,12.9z"/>
	
		<linearGradient id="SVGID_4_" gradientUnits="userSpaceOnUse" x1="5.7" y1="6.75" x2="20" y2="6.75" gradientTransform="matrix(1 0 0 -1 0 19.6)">
             <stop  offset="0" style="stop-color:#fff"/>
             <stop  offset="1" style="stop-color:#fff"/>
	</linearGradient>
	<path class="st3" d="M12.8,20L12.8,20c-4,0-7.1-3.2-7.1-7.2c0-1.9,0.8-3.7,2.1-5c1.4-1.3,3.1-2.1,5.1-2.1l0,0
		c3.9,0,7.1,3.2,7.1,7.2C20,16.8,16.8,20,12.8,20z M12.8,6.4c-1.7,0-3.4,0.7-4.6,1.9s-1.9,2.9-1.9,4.6c0,3.6,2.9,6.5,6.5,6.5l0,0
		l0,0c3.6,0,6.5-2.9,6.5-6.5C19.4,9.3,16.5,6.4,12.8,6.4C12.9,6.4,12.9,6.4,12.8,6.4z M12.8,17.7L12.8,17.7c-1.3,0-2.6-0.5-3.5-1.5
		c-0.9-0.9-1.4-2.2-1.4-3.4c0-2.7,2.2-4.8,4.9-4.8l0,0c2.7,0,4.9,2.2,4.8,4.9C17.7,15.6,15.5,17.7,12.8,17.7z M12.8,8.6
		c-2.3,0-4.2,1.9-4.2,4.2c0,1.1,0.4,2.2,1.2,3c0.8,0.8,1.9,1.3,3,1.3l0,0c2.3,0,4.2-1.9,4.2-4.2h0.3H17C17.1,10.6,15.2,8.7,12.8,8.6
		L12.8,8.6z"/>
</g>
<g>
	
		<linearGradient id="SVGID_5_" gradientUnits="userSpaceOnUse" x1="18.5" y1="13.45" x2="20.6" y2="13.45" gradientTransform="matrix(1 0 0 -1 0 19.6)">
             <stop  offset="0" style="stop-color:#fff"/>
             <stop  offset="1" style="stop-color:#fff"/>
	</linearGradient>
	<path class="st4" d="M19.5,7.2c-0.6,0-1-0.5-1-1.1s0.5-1,1.1-1s1,0.5,1,1C20.6,6.7,20.1,7.2,19.5,7.2z"/>
	
		<linearGradient id="SVGID_6_" gradientUnits="userSpaceOnUse" x1="18.2" y1="13.45" x2="20.9" y2="13.45" gradientTransform="matrix(1 0 0 -1 0 19.6)">
             <stop  offset="0" style="stop-color:#fff"/>
             <stop  offset="1" style="stop-color:#fff"/>
	</linearGradient>
	<path class="st5" d="M19.6,7.5L19.6,7.5c-0.4,0-0.7-0.1-1-0.4s-0.4-0.6-0.4-1s0.2-0.7,0.4-0.9c0.3-0.3,0.6-0.4,1-0.4
		c0.7,0,1.3,0.6,1.3,1.4c0,0.4-0.1,0.7-0.4,1C20.3,7.4,19.9,7.5,19.6,7.5z M19.6,5.4c-0.2,0-0.4,0.1-0.5,0.2
		c-0.1,0.1-0.2,0.3-0.2,0.5s0.1,0.4,0.2,0.5s0.3,0.2,0.5,0.2l0,0l0,0c0.2,0,0.4-0.1,0.5-0.2c0.1-0.1,0.2-0.3,0.2-0.5
		C20.3,5.8,20,5.4,19.6,5.4L19.6,5.4z"/>
</g>
</svg>
