<?xml version="1.0" encoding="utf-8"?>
<!-- Generator: Adobe Illustrator 21.0.0, SVG Export Plug-In . SVG Version: 6.00 Build 0)  -->
<svg version="1.1" id="Layer_1" xmlns="http://www.w3.org/2000/svg" xmlns:xlink="http://www.w3.org/1999/xlink" x="0px" y="0px"
	 viewBox="0 0 14 27.6" style="enable-background:new 0 0 14 27.6;" xml:space="preserve">
<style type="text/css">
	.st0{clip-path:url(#SVGID_2_);fill:url(#SVGID_3_);}
</style>
<g>
	<g>
		<g>
			<g>
				<defs>
					<rect id="SVGID_1_" width="14" height="27.6"/>
				</defs>
				<clipPath id="SVGID_2_">
					<use xlink:href="#SVGID_1_"  style="overflow:visible;"/>
				</clipPath>
				
					<linearGradient id="SVGID_3_" gradientUnits="userSpaceOnUse" x1="0.1" y1="671.65" x2="14.025" y2="671.65" gradientTransform="matrix(1 0 0 1 0 -657.8)">
					<stop  offset="0" style="stop-color:#28C2C4"/>
					<stop  offset="1" style="stop-color:#0985EF"/>
				</linearGradient>
				<path class="st0" d="M3.8,27.7c-0.3-0.1-0.3-0.4-0.3-0.7c0-4,0-7.9,0-11.9v-0.4H3.2c-0.8,0-1.7,0-2.5,0c-0.5,0-0.6-0.1-0.6-0.6
					c0-1.4,0-2.8,0-4.2c0-0.5,0.1-0.6,0.6-0.6c0.9,0,1.8,0,2.7,0h0.3V9c0-0.9,0-1.8,0-2.7c0-0.5-0.1-1,0-1.6C3.9,3.1,4.7,2,6,1.1
					C7.2,0.3,8.6,0,10,0c1.1,0,2.2,0,3.4,0C13.9,0,14,0.1,14,0.6c0,1.3,0,2.6,0,3.9c0,0.5-0.1,0.6-0.6,0.6c-0.9,0-1.7,0-2.6,0
					c-0.8,0-1.2,0.4-1.2,1.2c0,1,0,1.9,0,3h0.3c1.2,0,2.3,0,3.5,0c0.5,0,0.7,0.2,0.6,0.7c-0.2,1.4-0.3,2.9-0.5,4.3
					c0,0.4-0.2,0.5-0.6,0.5c-1.1,0-2.2,0-3.3,0v0.3c0,4,0,7.9,0,11.9c0,0.3-0.1,0.5-0.3,0.7H3.8z"/>
			</g>
		</g>
	</g>
</g>
</svg>
