<?xml version="1.0" encoding="utf-8"?>
<!-- Generator: Adobe Illustrator 21.0.0, SVG Export Plug-In . SVG Version: 6.00 Build 0)  -->
<svg version="1.1" id="Layer_1" xmlns="http://www.w3.org/2000/svg" xmlns:xlink="http://www.w3.org/1999/xlink" x="0px" y="0px"
	 viewBox="0 0 28.6 16.2" style="enable-background:new 0 0 28.6 16.2;" xml:space="preserve">
<style type="text/css">
	.st0{clip-path:url(#SVGID_2_);fill:url(#SVGID_3_);}
</style>
<g>
	<g>
		<g>
			<g>
				<defs>
					<rect id="SVGID_1_" width="28.6" height="16.2"/>
				</defs>
				<clipPath id="SVGID_2_">
					<use xlink:href="#SVGID_1_"  style="overflow:visible;"/>
				</clipPath>
				
					<linearGradient id="SVGID_3_" gradientUnits="userSpaceOnUse" x1="-0.1" y1="659.9" x2="28.575" y2="659.9" gradientTransform="matrix(1 0 0 1 0 -651.8)">
					<stop  offset="0" style="stop-color:#28C2C4"/>
					<stop  offset="1" style="stop-color:#0B88ED"/>
				</linearGradient>
				<path class="st0" d="M0,1c0.2-0.3,0.5-0.4,0.8-0.4c1.4,0,2.8,0,4.3,0c0.4,0,0.8,0.3,0.9,0.6C6.4,2.1,6.8,3,7.2,3.8
					C7.8,4.9,8.5,6,9.3,7.1C9.5,7.3,9.7,7.6,10,7.7c0.4,0.3,0.8,0.2,1-0.3c0.1-0.4,0.2-0.8,0.3-1.2c0.1-1.3,0.1-2.5-0.1-3.8
					c-0.1-0.7-0.5-1.2-1.2-1.3C9.5,1,9.5,0.9,9.8,0.5S10.6,0,11.1,0c1.4,0,2.8,0,4.2,0c1.1,0,1.4,0.5,1.4,1.4c0,1.2,0,2.3,0,3.5
					c0,0.6,0,1.2,0,1.8c0,0.3,0.2,0.6,0.4,0.9c0.2,0.3,0.6,0.3,0.8,0.1c0.4-0.4,0.7-0.7,1-1.1c1.2-1.5,2-3.2,2.7-5
					c0-0.1,0.1-0.2,0.1-0.3c0.2-0.5,0.6-0.7,1.1-0.7c1.6,0,3.1,0,4.7,0c0.1,0,0.3,0,0.4,0c0.6,0.1,0.8,0.4,0.6,1
					c-0.3,1-0.8,1.8-1.4,2.6c-0.9,1.2-1.8,2.4-2.6,3.6C24.3,8,24.2,8.3,24,8.5c-0.2,0.4-0.2,0.9,0.1,1.3c0.2,0.2,0.4,0.4,0.6,0.6
					c0.8,0.8,1.7,1.7,2.5,2.5c0.4,0.4,0.7,1,1.1,1.5c0.1,0.2,0.2,0.4,0.2,0.6c0.1,0.6-0.3,1.2-0.9,1.2c-1.4,0-2.9,0-4.3,0
					c-1,0-1.8-0.5-2.4-1.2c-0.6-0.6-1.2-1.3-1.8-1.9c-0.2-0.2-0.3-0.3-0.5-0.4c-0.6-0.4-1.1-0.3-1.4,0.4c-0.2,0.5-0.3,1-0.4,1.6
					c-0.1,0.2,0,0.5-0.1,0.7c-0.1,0.4-0.4,0.7-0.9,0.7c-1,0.1-2,0.1-3-0.1c-3-0.5-5.3-2.1-7.1-4.5C4,9.3,2.6,6.8,1.3,4.3
					c-0.5-1-0.9-2-1.4-3L0,1C-0.1,1,0,1,0,1z"/>
			</g>
		</g>
	</g>
</g>
</svg>
