<?xml version="1.0" encoding="utf-8"?>
<!-- Generator: Adobe Illustrator 21.0.0, SVG Export Plug-In . SVG Version: 6.00 Build 0)  -->
<svg version="1.1" id="Layer_1" xmlns="http://www.w3.org/2000/svg" xmlns:xlink="http://www.w3.org/1999/xlink" x="0px" y="0px"
	 viewBox="0 0 28.8 20.3" style="enable-background:new 0 0 28.8 20.3;" xml:space="preserve">
<style type="text/css">
	.st0{clip-path:url(#SVGID_2_);fill:url(#SVGID_3_);}
</style>
<g>
	<g>
		<g>
			<defs>
				<rect id="SVGID_1_" width="28.8" height="20.3"/>
			</defs>
			<clipPath id="SVGID_2_">
				<use xlink:href="#SVGID_1_"  style="overflow:visible;"/>
			</clipPath>
			
				<linearGradient id="SVGID_3_" gradientUnits="userSpaceOnUse" x1="9.999847e-02" y1="4.05" x2="28.8" y2="4.05" gradientTransform="matrix(1 0 0 -1 0 14.2)">
                     <stop  offset="0" style="stop-color:#fff"/>
                     <stop  offset="1" style="stop-color:#fff"/>
			</linearGradient>
			<path class="st0" d="M14.4,0c2.6,0,5.2,0,7.8,0c1.2,0,2.4,0.1,3.5,0.5c1.6,0.5,2.6,1.6,2.9,3.3c0.1,0.7,0.2,1.5,0.2,2.3
				c0,2.5,0,5,0,7.5c0,1.2-0.2,2.3-0.5,3.4c-0.5,1.4-1.4,2.3-2.9,2.8c-1.4,0.5-2.9,0.5-4.3,0.5c-4.7,0-9.4,0-14.2,0
				c-1.2,0-2.4-0.2-3.6-0.6c-1.4-0.6-2.4-1.6-2.8-3.1c-0.3-1-0.4-2.1-0.4-3.1c0-2.5,0-5.1,0-7.6c0-0.9,0.1-1.8,0.3-2.7
				C0.8,2,1.6,1.1,2.8,0.7c1-0.4,2-0.6,3-0.6C8.6,0,11.5,0,14.4,0L14.4,0z M11.1,10c0,1,0,2,0,3c0,0.9,0.7,1.3,1.4,0.9
				c2-1,3.9-2,5.9-3.1c0.2-0.1,0.4-0.3,0.5-0.4c0.3-0.5,0.1-1-0.5-1.3c-1.9-1-3.8-2-5.7-3c-0.9-0.4-1.5,0-1.5,0.9
				C11.1,8,11.1,9,11.1,10"/>
		</g>
	</g>
</g>
</svg>
