<svg width="40" height="40" viewBox="0 0 40 40" fill="none" xmlns="http://www.w3.org/2000/svg">
<path d="M19.9553 9.63623C14.2209 9.63623 9.55469 14.2523 9.55469 19.9267C9.55469 25.6005 14.2203 30.2166 19.9553 30.2166C25.6897 30.2166 30.356 25.6005 30.356 19.9267C30.356 14.2523 25.6897 9.63623 19.9553 9.63623ZM19.9553 26.4282C16.309 26.4282 13.3431 23.5111 13.3431 19.9267C13.3431 16.3417 16.309 13.4253 19.9553 13.4253C23.601 13.4253 26.5676 16.3417 26.5676 19.9267C26.5676 23.5118 23.6016 26.4282 19.9553 26.4282Z" fill="black"/>
<path d="M28.3761 0H11.4688C5.14525 0 0 5.1446 0 11.4688V28.5312C0 34.8547 5.1446 40 11.4688 40H28.3761C34.7003 40 39.8449 34.8547 39.8449 28.5312V11.4688C39.8449 5.14525 34.7003 0 28.3761 0ZM36.0493 28.5312C36.0493 32.7621 32.607 36.2044 28.3761 36.2044H11.4688C7.23789 36.2044 3.79556 32.7621 3.79556 28.5312V11.4688C3.79556 7.23789 7.23789 3.79556 11.4688 3.79556H28.3761C32.607 3.79556 36.0493 7.23789 36.0493 11.4688V28.5312Z" fill="black"/>
<path d="M30.5412 11.6629C31.8927 11.6629 32.9883 10.5673 32.9883 9.21573C32.9883 7.86419 31.8927 6.76855 30.5412 6.76855C29.1896 6.76855 28.094 7.86419 28.094 9.21573C28.094 10.5673 29.1896 11.6629 30.5412 11.6629Z" fill="black"/>
</svg>
