<svg width="60" height="40" viewBox="0 0 60 40" fill="none" xmlns="http://www.w3.org/2000/svg">
<g opacity="0.01">
<rect width="60" height="39.136" fill="white"/>
</g>
<rect x="22.0886" y="6.81836" width="15.8277" height="25.4947" fill="#FF5F00"/>
<path fill-rule="evenodd" clip-rule="evenodd" d="M23.7189 19.5678C23.7149 14.5936 26.0303 9.89384 29.9979 6.82269C23.2576 1.59857 13.5782 2.3595 7.76217 8.57073C1.94614 14.782 1.94614 24.3581 7.76217 30.5694C13.5782 36.7806 23.2576 37.5415 29.9979 32.3174C26.0291 29.2453 23.7135 24.5436 23.7189 19.5678Z" fill="#EB001B"/>
<path fill-rule="evenodd" clip-rule="evenodd" d="M56.2192 28.9849V30.2635H56.0937V29.2954L55.8978 30.1265H55.7621L55.5662 29.2954V30.2635H55.4356V28.9849H55.6165L55.8274 29.8982L56.0384 28.9849H56.2192ZM55.0588 29.2041V30.2636H54.9482V29.2041H54.7122V28.985H55.3099V29.2041H55.0588Z" fill="#F79E1B"/>
<path fill-rule="evenodd" clip-rule="evenodd" d="M56.5982 19.5682C56.5981 25.7756 53.0041 31.4381 47.3426 34.1507C41.6812 36.8633 34.9462 36.1498 29.998 32.3133C33.9639 29.2395 36.2795 24.5404 36.2795 19.5659C36.2795 14.5915 33.9639 9.89234 29.998 6.81858C34.9462 2.98204 41.6812 2.26856 47.3426 4.98117C53.0041 7.69378 56.5981 13.3562 56.5982 19.5637V19.5682Z" fill="#F79E1B"/>
</svg>
