<svg width="25" height="40" viewBox="0 0 25 40" fill="none" xmlns="http://www.w3.org/2000/svg">
<path d="M12.031 20.2473C17.6222 20.2473 22.1547 15.7148 22.1547 10.1237C22.1547 4.5325 17.6222 0 12.031 0C6.43987 0 1.90737 4.5325 1.90737 10.1237C1.90737 15.7148 6.43987 20.2473 12.031 20.2473ZM12.031 5.14317C14.7818 5.14317 17.0115 7.37294 17.0115 10.1237C17.0115 12.8744 14.7818 15.1041 12.031 15.1041C9.28031 15.1041 7.05055 12.8744 7.05055 10.1237C7.05055 7.37354 9.28031 5.14317 12.031 5.14317ZM23.7002 21.4824C23.1284 20.334 21.5458 19.3789 19.4417 21.0368C16.5982 23.2774 12.0304 23.2774 12.0304 23.2774C12.0304 23.2774 7.46265 23.2774 4.61922 21.0368C2.51566 19.3789 0.93245 20.334 0.360654 21.4824C-0.635802 23.4843 0.489847 24.4515 3.03063 26.0825C5.20058 27.4755 8.18218 27.9959 10.1081 28.1909L8.50097 29.798C6.23711 32.0618 4.05161 34.2473 2.53539 35.7636C1.62865 36.6697 1.62865 38.1399 2.53539 39.0466L2.80873 39.3199C3.71547 40.2267 5.18503 40.2261 6.09177 39.3199L12.0574 33.3544C14.3212 35.6182 16.5067 37.8037 18.0229 39.3199C18.9291 40.2267 20.3992 40.2267 21.306 39.3199L21.5793 39.0466C22.486 38.1399 22.4855 36.6703 21.5793 35.7636L15.6137 29.798L14.0012 28.1861C15.9283 27.9875 18.8782 27.4647 21.0302 26.0831C23.571 24.4521 24.6967 23.4843 23.7002 21.4824Z" fill="black"/>
</svg>
