<svg width="28" height="40" viewBox="0 0 28 40" fill="none" xmlns="http://www.w3.org/2000/svg">
<path d="M23.5255 0H4.47446C2.02965 0 0 2.01405 0 4.49649V35.5035C0 37.986 1.98353 40 4.47446 40H23.5255C25.9703 40 28 37.986 28 35.5035V4.49649C28 2.01405 26.0165 0 23.5255 0ZM26.6161 35.5035C26.6161 37.2365 25.2323 38.5948 23.5255 38.5948H4.47446C2.76771 38.5948 1.38385 37.1897 1.38385 35.5035V4.49649C1.38385 2.76347 2.76771 1.40515 4.47446 1.40515H23.5255C25.2323 1.40515 26.6161 2.8103 26.6161 4.49649V35.5035Z" fill="#E54859"/>
<path d="M21.0534 4.44971H8.84584C8.45046 4.44971 8.10449 4.77758 8.10449 5.15228C8.10449 5.52699 8.45046 5.85486 8.84584 5.85486H21.0534C21.4488 5.85486 21.7948 5.52699 21.7948 5.15228C21.7948 4.77758 21.4488 4.44971 21.0534 4.44971Z" fill="#E54859"/>
<path d="M14.9751 31.2881C13.5912 31.2881 12.5039 32.3654 12.5039 33.63C12.5039 34.2389 12.751 34.8478 13.2453 35.2693C13.6901 35.6909 14.3326 35.9251 14.9751 35.9251C16.3589 35.9251 17.4462 34.8478 17.4462 33.5832C17.4462 32.3185 16.3589 31.2881 14.9751 31.2881ZM15.0245 34.5668C14.7774 34.5668 14.5303 34.4731 14.3326 34.2857C14.1349 34.0984 14.036 33.8642 14.036 33.63C14.036 33.1148 14.4808 32.6932 15.0245 32.6932C15.5682 32.6932 16.013 33.1148 16.013 33.63C16.013 34.1452 15.5682 34.5668 15.0245 34.5668Z" fill="#E54859"/>
</svg>
