<svg width="22" height="22" viewBox="0 0 22 22" fill="none" xmlns="http://www.w3.org/2000/svg">
<path d="M21.0678 20.1842L21.0676 20.1841L15.4174 14.5262C16.8433 13.0634 17.7207 11.0943 17.7207 8.92962C17.7207 4.4101 13.9056 0.75 9.23534 0.75C4.56507 0.75 0.75 4.4101 0.75 8.92962C0.75 13.4491 4.56507 17.1092 9.23534 17.1092C11.2053 17.1092 13.021 16.4579 14.4631 15.3675L20.1478 21.0602C20.1479 21.0603 20.148 21.0604 20.148 21.0605C20.2752 21.1884 20.4432 21.25 20.608 21.25C20.7655 21.25 20.9246 21.1935 21.0493 21.0783L21.0496 21.078C21.3095 20.8373 21.3177 20.435 21.0678 20.1842ZM9.23534 15.854C5.25576 15.854 2.03432 12.7388 2.03432 8.92962C2.03432 5.12039 5.25576 2.0052 9.23534 2.0052C13.2149 2.0052 16.4364 5.12039 16.4364 8.92962C16.4364 12.7388 13.2145 15.854 9.23534 15.854Z" fill="#E54859" stroke="#E54859" stroke-width="0.5"/>
</svg>
