<svg width="75" height="24" viewBox="0 0 75 24" fill="none" xmlns="http://www.w3.org/2000/svg">
<path fill-rule="evenodd" clip-rule="evenodd" d="M32.5003 23.2988H26.4248L30.2249 0.415527H36.3001L32.5003 23.2988Z" fill="#0742A6"/>
<path fill-rule="evenodd" clip-rule="evenodd" d="M54.524 0.974231C53.3257 0.511221 51.425 0 49.0747 0C43.075 0 38.85 3.11586 38.824 7.57059C38.7742 10.8573 41.849 12.6828 44.1487 13.7787C46.4993 14.8985 47.2983 15.6294 47.2983 16.6276C47.2744 18.1606 45.3989 18.8673 43.6497 18.8673C41.2241 18.8673 39.9244 18.503 37.9493 17.6501L37.1493 17.2844L36.2991 22.4212C37.724 23.0535 40.3493 23.6145 43.075 23.6391C49.4498 23.6391 53.6001 20.5715 53.6493 15.8242C53.6735 13.2193 52.0499 11.2232 48.5495 9.59218C46.4245 8.54515 45.1232 7.83915 45.1232 6.76785C45.1481 5.79394 46.2239 4.79641 48.6226 4.79641C50.5977 4.74756 52.0489 5.20992 53.1483 5.67261L53.6978 5.9156L54.524 0.974231Z" fill="#0742A6"/>
<path fill-rule="evenodd" clip-rule="evenodd" d="M65.3991 0.415527H70.0986L75 23.2985H69.3746C69.3746 23.2985 68.8241 20.6692 68.6497 19.8659H60.8492C60.6236 20.4741 59.5741 23.2985 59.5741 23.2985H53.1992L62.2237 2.31416C62.8489 0.829034 63.9499 0.415527 65.3991 0.415527ZM65.026 8.78944C65.026 8.78944 63.1008 13.8774 62.6004 15.192H67.6503C67.4005 14.0479 66.25 8.57039 66.25 8.57039L65.8254 6.59863C65.6466 7.10637 65.388 7.80444 65.2136 8.27527C65.0954 8.59443 65.0158 8.80918 65.026 8.78944Z" fill="#0742A6"/>
<path fill-rule="evenodd" clip-rule="evenodd" d="M21.3481 0.415527L15.3982 16.0197L14.748 12.855C13.648 9.20335 10.1981 5.23588 6.34814 3.26316L11.7981 23.2745H18.2228L27.7725 0.415527H21.3481V0.415527Z" fill="#0742A6"/>
<path fill-rule="evenodd" clip-rule="evenodd" d="M9.87495 0.415527H0.100002L0 0.877891C7.62507 2.77685 12.675 7.35422 14.7498 12.856L12.6248 2.33908C12.275 0.877567 11.1999 0.463737 9.87495 0.415527Z" fill="#0742A6"/>
</svg>
