<svg width="52" height="30" viewBox="0 0 52 30" fill="none" xmlns="http://www.w3.org/2000/svg">
<path d="M51.6079 26.7312C51.5447 26.5962 51.4863 26.4833 51.4318 26.3933C50.5311 24.7726 48.8116 22.7823 46.2726 20.4233L46.2182 20.3697L46.1913 20.342L46.1645 20.316H46.1376C44.985 19.217 44.2555 18.4789 43.95 18.0999C43.3918 17.3807 43.2655 16.6512 43.5718 15.9131C43.7889 15.3549 44.5989 14.1754 46.0034 12.3739C46.7416 11.4202 47.3266 10.6552 47.7592 10.0773C50.8745 5.93571 52.2245 3.28939 51.8108 2.13597L51.6482 1.86597C51.54 1.70334 51.2605 1.55492 50.8105 1.41992C50.3605 1.28492 49.7842 1.2636 49.0824 1.35282L41.3029 1.40808C41.1229 1.38992 40.9429 1.39466 40.7621 1.42071C40.5821 1.44834 40.4653 1.47518 40.4108 1.50203C40.3563 1.52966 40.3121 1.55176 40.2758 1.56913L40.1676 1.65045C40.0776 1.70413 39.9789 1.79887 39.8708 1.93466C39.7626 2.06966 39.6718 2.22676 39.6008 2.40755C38.7545 4.5865 37.7913 6.61229 36.7105 8.48571C36.0442 9.60203 35.4316 10.5707 34.8742 11.3894C34.3161 12.2097 33.8479 12.8128 33.4697 13.1989C33.0916 13.5857 32.7489 13.8976 32.4434 14.1304C32.1371 14.3657 31.9026 14.4636 31.7416 14.4281C31.5789 14.3926 31.4258 14.3562 31.2821 14.3191C31.0303 14.1573 30.8266 13.937 30.6742 13.6576C30.5211 13.3789 30.4176 13.0276 30.3632 12.6044C30.3095 12.1812 30.2771 11.8165 30.2692 11.5102C30.2597 11.2039 30.2645 10.772 30.2826 10.2139C30.3008 9.65571 30.3095 9.27834 30.3095 9.0794C30.3095 8.39571 30.3229 7.65282 30.3505 6.85071C30.3774 6.0494 30.4003 5.41466 30.4176 4.9465C30.4358 4.47913 30.4445 3.98334 30.4445 3.46071C30.4445 2.93966 30.4129 2.52913 30.3497 2.2315C30.2866 1.93466 30.1918 1.64729 30.0663 1.36703C29.94 1.08834 29.7553 0.872026 29.5121 0.719657C29.2689 0.5665 28.9674 0.444921 28.6074 0.354921C27.6521 0.138605 26.4371 0.0225521 24.9608 0.00360477C21.6111 -0.0311321 19.4589 0.185184 18.5045 0.652552C18.1263 0.8515 17.7837 1.12071 17.4782 1.46334C17.1537 1.85966 17.1087 2.07676 17.3432 2.11071C18.4239 2.27334 19.1889 2.66097 19.6389 3.27282L19.8016 3.5965C19.9271 3.83176 20.0534 4.24545 20.1797 4.83913C20.3061 5.43361 20.3866 6.09045 20.4229 6.81124C20.5129 8.12571 20.5129 9.25071 20.4229 10.1878C20.3329 11.1249 20.2476 11.8536 20.1663 12.3747C20.085 12.8973 19.9634 13.3197 19.8016 13.6441C19.6389 13.9694 19.5316 14.1676 19.4771 14.2394C19.4226 14.3112 19.3784 14.3562 19.3421 14.3744C19.1076 14.4636 18.8653 14.5094 18.6126 14.5094C18.36 14.5094 18.0545 14.3831 17.6937 14.1304C17.3337 13.8794 16.9595 13.532 16.5726 13.0907C16.185 12.6502 15.7492 12.0328 15.2621 11.2402C14.7758 10.4483 14.2713 9.51203 13.7495 8.43124L13.3176 7.64729C13.0476 7.14361 12.6782 6.4094 12.21 5.44624C11.7418 4.48308 11.3274 3.5515 10.9674 2.64992C10.8229 2.27255 10.6074 1.98439 10.3192 1.78545L10.1842 1.70413C10.0942 1.63229 9.94974 1.55571 9.75158 1.47518C9.55263 1.39387 9.34658 1.33545 9.13026 1.29913L1.72895 1.35282C0.972632 1.35282 0.459474 1.52492 0.189474 1.86676L0.0813158 2.0286C0.0268421 2.11939 0 2.26387 0 2.46124C0 2.66018 0.0544737 2.90255 0.162632 3.18992C1.24342 5.72966 2.41816 8.17861 3.68763 10.5368C4.95789 12.8965 6.06 14.7968 6.99711 16.2368C7.93342 17.6783 8.88789 19.037 9.86053 20.316C10.8332 21.5949 11.4766 22.4136 11.7916 22.7736C12.1066 23.1344 12.3537 23.4044 12.5345 23.5844L13.2095 24.2333C13.6413 24.6652 14.2768 25.1831 15.1137 25.7862C15.9513 26.3902 16.8782 26.9839 17.8958 27.5681C18.9126 28.1539 20.0976 28.6299 21.4476 29.0002C22.7984 29.3697 24.1129 29.5181 25.3911 29.4454H28.4976C29.1284 29.3918 29.6053 29.1944 29.9289 28.851L30.0371 28.716C30.1089 28.6086 30.1768 28.4412 30.24 28.217C30.3024 27.992 30.3347 27.7441 30.3347 27.4741C30.3158 26.6997 30.375 26.001 30.51 25.3804C30.645 24.7591 30.7982 24.291 30.9695 23.9752C31.1408 23.661 31.3334 23.3949 31.5505 23.1786C31.7668 22.9623 31.9192 22.8328 32.01 22.787C32.1 22.7428 32.1726 22.7112 32.2263 22.6923C32.6582 22.5486 33.1666 22.6883 33.7524 23.1107C34.3374 23.5347 34.8868 24.0557 35.4 24.6778C35.9132 25.2991 36.5297 25.9962 37.2505 26.7715C37.9705 27.546 38.6005 28.1215 39.1413 28.4997L39.6821 28.8249C40.0421 29.0405 40.5103 29.2386 41.0866 29.4194C41.6629 29.5986 42.1674 29.6444 42.5992 29.5544L49.5142 29.4454C50.1987 29.4454 50.73 29.3333 51.1082 29.1076C51.4863 28.8841 51.7113 28.6347 51.7832 28.3647C51.855 28.0947 51.8597 27.7899 51.7966 27.4465C51.7334 27.1047 51.6703 26.8662 51.6079 26.7312Z" fill="black"/>
</svg>
