
<svg xmlns="http://www.w3.org/2000/svg" version="1.1" xmlns:xlink="http://www.w3.org/1999/xlink" preserveAspectRatio="none" x="0px" y="0px" width="670px" height="250px" viewBox="0 0 670 250">
<defs>
<g id="Layer0_0_FILL">
<path fill="#000000" stroke="none" d="
M 315.75 210.25
Q 315.2 210.25 314.8 210.1 314.4 210 314.05 209.7 313.75 209.45 313.5 209 313.2 208.55 312.9 207.85
L 306.6 193 300.5 207.6
Q 300.2 208.4 299.9 208.85 299.55 209.35 299.2 209.7 298.85 210 298.4 210.15 297.9 210.25 297.35 210.3
L 297.35 210.9 303.1 210.9 303.1 210.25 302.9 210.25
Q 302 210.25 301.6 210.05 301.2 209.8 301.2 209.3 301.2 209.05 301.25 208.8 301.35 208.55 301.6 207.95
L 302.75 205.25 308.95 205.25 310.2 208.25
Q 310.4 208.75 310.45 208.9 310.45 209.05 310.45 209.3 310.45 210.3 308.95 210.3 308.85 210.3 308.8 210.25 308.7 210.25 308.6 210.25
L 308.6 210.9 315.75 210.9 315.75 210.25
M 308.55 204.3
L 303.1 204.3 305.85 197.8 308.55 204.3
M 116.15 42.45
Q 107.2 38.95 95.65 38.85 93.6 38.85 91.55 38.95 89.4 39 87.35 39 85.2 39.15 83.15 39.25 81.1 39.3 78.95 39.3
L 50.65 39.3 50.65 41.45 67.35 41.45 67.35 144.35 50.65 144.35 50.65 146.5 99.1 146.5 99.1 144.35 82.4 144.35 82.4 94.65
Q 85.05 95.2 88.3 95.55 91.55 95.9 93.65 95.9 104.9 95.85 114.4 92.55 123.9 89.15 129.6 82.85 135.4 76.45 135.55 67.45 135.4 58.85 130.3 52.45 125.15 46 116.15 42.45
M 91.15 41
Q 100.8 40.95 106.85 43.3 112.8 45.65 115.5 51.45 118.3 57.25 118.2 67.45 118.15 80.7 111.95 87.25 105.7 93.8 94.6 93.8 92.05 93.8 88.75 93.5 85.45 93.2 82.4 92.6
L 82.4 41.45
Q 83.65 41.3 86 41.15 88.3 41 91.15 41
M 267 194.85
Q 267.3 195.2 267.4 195.75 267.5 196.35 267.5 197.25
L 267.5 207.25
Q 267.5 208.15 267.4 208.75 267.3 209.3 267 209.65 266.75 209.95 266.25 210.1 265.75 210.25 265 210.25
L 265 210.9 272.65 210.9 272.65 210.25
Q 272.55 210.25 272.45 210.25 272.4 210.25 272.35 210.25 271.65 210.2 271.2 210.05 270.8 209.9 270.55 209.55 270.25 209.2 270.15 208.65 270.1 208.1 270.1 207.25
L 270.1 202.6
Q 271.2 202.9 271.9 202.95 272.6 203.05 273.25 203.05 275.55 203.05 276.9 201.75 278.2 200.5 278.2 198.25 278.2 197.1 277.7 196.15 277.25 195.15 276.3 194.55 275.9 194.3 275.45 194.1 275 193.9 274.45 193.75 273.9 193.65 273.2 193.6 272.45 193.6 271.45 193.6
L 264.95 193.6 264.95 194.25
Q 265.7 194.25 266.2 194.4 266.7 194.5 267 194.85
M 270.1 195.15
Q 270.1 194.6 271.65 194.6 273.35 194.6 274.3 195.6 275.3 196.6 275.3 198.3 275.3 200 274.4 201.05 273.5 202.05 272.1 202.05 271.2 202.05 270.65 201.85 270.1 201.65 270.1 201.3
L 270.1 195.15
M 180.35 41.45
L 197.05 41.45 197.05 39.3 148.6 39.3 148.6 41.45 165.3 41.45 165.3 144.35 148.6 144.35 148.6 146.5 197.05 146.5 197.05 144.35 180.35 144.35 180.35 41.45
M 262.65 41.45
Q 270.85 41.45 276.1 44.15 281.3 46.9 284.6 52.2 287.95 57.55 290.35 65.35
L 292.05 65.35 292.05 39.3 205.95 39.3 205.95 41.45 222.65 41.45 222.65 144.35 205.95 144.35 205.95 146.5 297.8 146.5 297.8 113.5 296.1 113.5
Q 295.7 117.1 294.05 122.25 292.35 127.3 288.9 132.4 285.5 137.45 279.9 140.85 274.35 144.2 266.1 144.35
L 237.7 144.35 237.7 90.05 249.85 90.05
Q 257 90.1 260.75 93.25 264.55 96.5 266.4 101.6 268.15 106.75 269.4 112.6
L 271.1 112.6 271.1 65.8 269.4 65.8
Q 267.35 74.75 264.75 79.55 262.2 84.4 258.15 86.2 254.1 88 247.5 87.9
L 237.7 87.9 237.7 41.45 262.65 41.45
M 402.6 194.75
Q 403.1 194.5 403.7 194.5 405.35 194.5 406.35 195.7 407.35 196.85 407.5 198.85
L 408.15 198.9 408.2 193.2 407.55 193.2
Q 407.4 194 406.7 194 406.4 194 406.1 193.9
L 405.75 193.75 405.45 193.7 405.15 193.6
Q 404.25 193.4 403.35 193.4 402.3 193.4 401.4 193.75 400.5 194.1 399.85 194.7 399.2 195.35 398.8 196.15 398.45 197 398.45 198 398.45 199 398.9 199.9 399.05 200.2 399.25 200.5 399.5 200.75 399.75 201 400.05 201.3 400.4 201.55 400.75 201.8 401.3 202.15
L 404.35 204
Q 405.6 204.75 406.05 205.4 406.55 206.05 406.55 206.95 406.55 207.6 406.3 208.15 406.05 208.7 405.6 209.1 405.15 209.5 404.55 209.75 403.9 209.95 403.2 209.95 402.3 209.95 401.5 209.65 400.7 209.3 400.15 208.75 399.6 208.15 399.25 207.3 398.9 206.5 398.9 205.45
L 398.2 205.45 398.1 211.1 398.8 211.1
Q 398.9 210.7 399.1 210.5 399.3 210.35 399.7 210.35 399.9 210.35 400.3 210.45
L 400.5 210.55
Q 400.65 210.6 400.75 210.6 400.8 210.6 400.85 210.65 401.45 210.8 401.85 210.95 402.25 211.05 402.5 211.1 402.8 211.15 403.05 211.15 403.3 211.15 403.65 211.15 404.85 211.15 405.85 210.8 406.85 210.45 407.55 209.8 408.25 209.15 408.65 208.25 409.05 207.4 409.05 206.3 409.05 205.55 408.85 204.8 408.6 204.05 408.1 203.4 407.7 202.9 407.05 202.4 406.4 201.9 405.15 201.2
L 402.75 199.75
Q 401.85 199.25 401.35 198.55 400.85 197.9 400.85 197.2 400.85 196.65 401.05 196.15 401.3 195.65 401.7 195.3 402.05 194.95 402.6 194.75
M 370.25 193.6
L 370.25 194.25
Q 371 194.3 371.5 194.4 372 194.55 372.25 194.9 372.55 195.2 372.65 195.8 372.8 196.35 372.8 197.25
L 372.8 207.25
Q 372.8 208.15 372.7 208.75 372.6 209.3 372.3 209.65 372 209.95 371.5 210.1 371 210.25 370.25 210.25
L 370.25 210.9 377.95 210.9 377.95 210.25
Q 377.85 210.25 377.8 210.25 377.7 210.25 377.65 210.25 376.95 210.2 376.5 210.05 376.1 209.9 375.85 209.55 375.55 209.2 375.45 208.65 375.4 208.1 375.4 207.25
L 375.4 197.25
Q 375.4 196.35 375.5 195.8 375.6 195.25 375.85 194.9 376.1 194.6 376.55 194.45 377 194.3 377.65 194.25
L 377.95 194.25 377.95 193.6 370.25 193.6
M 336.5 194.85
Q 336.8 195.2 336.9 195.75 337.05 196.35 337.05 197.25
L 337.05 207.25
Q 337.05 208.15 336.95 208.75 336.85 209.3 336.55 209.65 336.25 209.95 335.75 210.1 335.3 210.25 334.55 210.25
L 334.55 210.9 342.2 210.9 342.2 210.25
Q 342.1 210.25 342 210.25 341.95 210.25 341.9 210.25 341.2 210.2 340.75 210 340.3 209.85 340.05 209.55 339.8 209.2 339.7 208.65 339.6 208.1 339.6 207.25
L 339.6 202.9
Q 339.9 202.9 340.1 202.9 340.25 202.9 340.4 202.9 340.5 202.9 340.7 202.9 340.95 202.9 341.2 202.9
L 347.1 210.9 351.85 210.9 351.85 210.25 351.7 210.25
Q 351.05 210.2 350.6 210.05 350.15 209.95 349.7 209.65 349.3 209.4 348.85 208.9 348.4 208.45 347.85 207.7
L 344.05 202.4
Q 345.9 201.95 346.9 200.8 347.9 199.65 347.9 198.1 347.9 196.7 347.2 195.65 346.55 194.55 345.3 194.1 344.6 193.85 343.7 193.7 342.8 193.6 341.7 193.6
L 334.5 193.6 334.5 194.25
Q 335.25 194.25 335.75 194.4 336.25 194.5 336.5 194.85
M 339.6 195.2
Q 339.6 194.5 341.5 194.5 343.05 194.5 344 195.55 344.95 196.55 344.95 198.2 344.95 199.9 343.75 200.9 342.6 201.95 340.55 201.95 339.95 201.95 339.8 201.9 339.6 201.8 339.6 201.6
L 339.6 195.2
M 382.95 45.5
Q 377.15 41.1 370.35 39.9 363.4 38.7 354.65 38.85 352.9 38.85 351.05 38.95 349.3 39 347.45 39 345.7 39.15 343.85 39.25 342 39.3 340.25 39.3
L 311.65 39.3 311.65 41.45 328.35 41.45 328.35 144.35 311.65 144.35 311.65 146.5 360.1 146.5 360.1 144.35 343.4 144.35 343.4 90.05 358.5 90.05
Q 362.1 89.8 366.7 90.9 371.45 91.95 375.2 96.35 378.95 100.75 379.8 110.6
L 380.85 124.35
Q 381.45 132 383.4 137.15 385.4 142.3 389.95 144.95 394.45 147.6 402.4 147.6 408.55 147.55 411.35 146.3 414.2 145.05 415.6 143.7
L 414.3 142
Q 412.5 143.65 410.45 144.35 408.4 145.2 406.4 145.2 402.15 145.05 400.1 142 398.05 139.05 397.25 134.95 396.55 131.35 396.3 126.05 396 120.85 395.6 115.5 395.15 110.05 394.05 106 392.55 100.9 389 97.6 385.45 94.3 381.05 92.45 376.7 90.55 372.7 89.65 368.65 88.8 366.15 88.5
L 366.15 88.2
Q 374.8 87 380.1 84 385.4 81.05 388.1 77.3 390.85 73.55 391.7 70.1 392.65 66.6 392.6 64.3 392.65 59.7 390.4 54.7 388.1 49.7 382.95 45.5
M 343.4 41.45
Q 345.4 41.2 348.1 41.1 350.85 41 353.65 41 359 40.85 364.15 42.4 369.2 44 372.6 49.1 375.9 54.25 376.05 64.6 376.05 73.8 373.65 78.85 371.3 83.95 367.1 86 362.85 88 357.25 87.9
L 343.4 87.9 343.4 41.45
M 488.2 84
Q 493.5 81.05 496.2 77.3 498.95 73.55 499.8 70.1 500.75 66.6 500.7 64.3 500.75 59.7 498.5 54.7 496.2 49.7 491.05 45.5 485.25 41.1 478.45 39.9 471.5 38.7 462.75 38.85 461 38.85 459.15 38.95 457.4 39 455.55 39 453.8 39.15 451.95 39.25 450.1 39.3 448.35 39.3
L 419.75 39.3 419.75 41.45 436.45 41.45 436.45 144.35 419.75 144.35 419.75 146.5 468.2 146.5 468.2 144.35 451.5 144.35 451.5 90.05 466.6 90.05
Q 470.2 89.8 474.8 90.9 479.55 91.95 483.3 96.35 487.05 100.75 487.9 110.6
L 488.95 124.35
Q 489.55 132 491.5 137.15 493.5 142.3 498.05 144.95 502.55 147.6 510.5 147.6 516.65 147.55 519.45 146.3 522.3 145.05 523.7 143.7
L 522.4 142
Q 520.6 143.65 518.55 144.35 516.5 145.2 514.5 145.2 510.25 145.05 508.2 142 506.15 139.05 505.35 134.95 504.65 131.35 504.4 126.05 504.1 120.85 503.7 115.5 503.25 110.05 502.15 106 500.65 100.9 497.1 97.6 493.55 94.3 489.15 92.45 484.8 90.55 480.8 89.65 476.75 88.8 474.25 88.5
L 474.25 88.2
Q 482.9 87 488.2 84
M 451.5 41.45
Q 453.5 41.2 456.2 41.1 458.95 41 461.75 41 467.1 40.85 472.25 42.4 477.3 44 480.7 49.1 484 54.25 484.15 64.6 484.15 73.8 481.75 78.85 479.4 83.95 475.2 86 470.95 88 465.35 87.9
L 451.5 87.9 451.5 41.45
M 584.2 41.45
Q 592.4 41.45 597.65 44.15 602.85 46.9 606.15 52.2 609.5 57.55 611.9 65.35
L 613.6 65.35 613.6 39.3 527.5 39.3 527.5 41.45 544.2 41.45 544.2 144.35 527.5 144.35 527.5 146.5 619.35 146.5 619.35 113.5 617.65 113.5
Q 617.25 117.1 615.6 122.25 613.9 127.3 610.45 132.4 607.05 137.45 601.45 140.85 595.9 144.2 587.65 144.35
L 559.25 144.35 559.25 90.05 571.4 90.05
Q 578.55 90.1 582.3 93.25 586.1 96.5 587.95 101.6 589.7 106.75 590.95 112.6
L 592.65 112.6 592.65 65.8 590.95 65.8
Q 588.9 74.75 586.3 79.55 583.75 84.4 579.7 86.2 575.65 88 569.05 87.9
L 559.25 87.9 559.25 41.45 584.2 41.45 Z"/>
</g>
</defs>

<g transform="matrix( 1, 0, 0, 1, 0,0) ">
<use xlink:href="#Layer0_0_FILL"/>
</g>
</svg>
