<svg width="53" height="45" viewBox="0 0 53 45" fill="none" xmlns="http://www.w3.org/2000/svg">
<g clip-path="url(#clip0)">
<path d="M26.5 0.687744C17.8237 0.687744 10.7656 6.4856 10.7656 13.6127C10.7656 13.9889 11.1358 14.293 11.5938 14.293C12.0517 14.293 12.4219 13.9889 12.4219 13.6127C12.4219 7.23593 18.7372 2.04827 26.5 2.04827C34.2628 2.04827 40.5781 7.23593 40.5781 13.6127C40.5781 13.9889 40.9483 14.293 41.4062 14.293C41.8642 14.293 42.2344 13.9889 42.2344 13.6127C42.2344 6.4856 35.1763 0.687744 26.5 0.687744Z" fill="#F0CC8E"/>
<path d="M47.2031 26.5376H5.79688C5.33892 26.5376 4.96875 26.8418 4.96875 27.2182C4.96875 27.5945 5.33892 27.8987 5.79688 27.8987H47.2031C47.6611 27.8987 48.0312 27.5945 48.0312 27.2182C48.0312 26.8418 47.6611 26.5376 47.2031 26.5376Z" fill="#F0CC8E"/>
<path d="M47.2031 40.823H5.79688C5.33892 40.823 4.96875 41.1272 4.96875 41.5036C4.96875 41.8799 5.33892 42.1841 5.79688 42.1841H47.2031C47.6611 42.1841 48.0312 41.8799 48.0312 41.5036C48.0312 41.1272 47.6611 40.823 47.2031 40.823Z" fill="#F0CC8E"/>
<path d="M9.10938 26.5376C8.65142 26.5376 8.28125 26.8417 8.28125 27.2179V41.5033C8.28125 41.8795 8.65142 42.1836 9.10938 42.1836C9.56733 42.1836 9.9375 41.8795 9.9375 41.5033V27.2179C9.9375 26.8417 9.56733 26.5376 9.10938 26.5376Z" fill="#F0CC8E"/>
<path d="M14.0781 26.5376C13.6202 26.5376 13.25 26.8417 13.25 27.2179V41.5033C13.25 41.8795 13.6202 42.1836 14.0781 42.1836C14.5361 42.1836 14.9062 41.8795 14.9062 41.5033V27.2179C14.9062 26.8417 14.5361 26.5376 14.0781 26.5376Z" fill="#F0CC8E"/>
<path d="M19.0469 26.5376C18.5889 26.5376 18.2188 26.8417 18.2188 27.2179V41.5033C18.2188 41.8795 18.5889 42.1836 19.0469 42.1836C19.5048 42.1836 19.875 41.8795 19.875 41.5033V27.2179C19.875 26.8417 19.5048 26.5376 19.0469 26.5376Z" fill="#F0CC8E"/>
<path d="M24.0156 26.5376C23.5577 26.5376 23.1875 26.8417 23.1875 27.2179V41.5033C23.1875 41.8795 23.5577 42.1836 24.0156 42.1836C24.4736 42.1836 24.8438 41.8795 24.8438 41.5033V27.2179C24.8438 26.8417 24.4736 26.5376 24.0156 26.5376Z" fill="#F0CC8E"/>
<path d="M28.9844 26.5376C28.5264 26.5376 28.1562 26.8417 28.1562 27.2179V41.5033C28.1562 41.8795 28.5264 42.1836 28.9844 42.1836C29.4423 42.1836 29.8125 41.8795 29.8125 41.5033V27.2179C29.8125 26.8417 29.4423 26.5376 28.9844 26.5376Z" fill="#F0CC8E"/>
<path d="M33.9531 26.5376C33.4952 26.5376 33.125 26.8417 33.125 27.2179V41.5033C33.125 41.8795 33.4952 42.1836 33.9531 42.1836C34.4111 42.1836 34.7812 41.8795 34.7812 41.5033V27.2179C34.7812 26.8417 34.4111 26.5376 33.9531 26.5376Z" fill="#F0CC8E"/>
<path d="M38.9219 26.5376C38.4639 26.5376 38.0938 26.8417 38.0938 27.2179V41.5033C38.0938 41.8795 38.4639 42.1836 38.9219 42.1836C39.3798 42.1836 39.75 41.8795 39.75 41.5033V27.2179C39.75 26.8417 39.3798 26.5376 38.9219 26.5376Z" fill="#F0CC8E"/>
<path d="M43.8906 26.5376C43.4327 26.5376 43.0625 26.8417 43.0625 27.2179V41.5033C43.0625 41.8795 43.4327 42.1836 43.8906 42.1836C44.3486 42.1836 44.7188 41.8795 44.7188 41.5033V27.2179C44.7188 26.8417 44.3486 26.5376 43.8906 26.5376Z" fill="#F0CC8E"/>
<path d="M10.7656 42.8639C10.3085 42.8639 9.9375 42.5592 9.9375 42.1837C9.9375 41.8075 9.56733 41.5034 9.10938 41.5034C8.65142 41.5034 8.28125 41.8075 8.28125 42.1837C8.28125 43.3088 9.39591 44.2245 10.7656 44.2245C11.2236 44.2245 11.5938 43.9204 11.5938 43.5442C11.5938 43.168 11.2236 42.8639 10.7656 42.8639Z" fill="#F0CC8E"/>
<path d="M9.10938 40.823C8.65142 40.823 8.28125 41.1272 8.28125 41.5036V42.1841C8.28125 42.5605 8.65142 42.8647 9.10938 42.8647C9.56733 42.8647 9.9375 42.5605 9.9375 42.1841V41.5036C9.9375 41.1272 9.56733 40.823 9.10938 40.823Z" fill="#F0CC8E"/>
<path d="M43.8906 41.5034C43.4327 41.5034 43.0625 41.8075 43.0625 42.1837C43.0625 42.5592 42.6915 42.8639 42.2344 42.8639C41.7764 42.8639 41.4062 43.168 41.4062 43.5442C41.4062 43.9204 41.7764 44.2245 42.2344 44.2245C43.6041 44.2245 44.7188 43.3088 44.7188 42.1837C44.7188 41.8075 44.3486 41.5034 43.8906 41.5034Z" fill="#F0CC8E"/>
<path d="M43.8906 40.823C43.4327 40.823 43.0625 41.1272 43.0625 41.5036V42.1841C43.0625 42.5605 43.4327 42.8647 43.8906 42.8647C44.3486 42.8647 44.7188 42.5605 44.7188 42.1841V41.5036C44.7188 41.1272 44.3486 40.823 43.8906 40.823Z" fill="#F0CC8E"/>
<path d="M42.2344 42.864H10.7656C10.3077 42.864 9.9375 43.1682 9.9375 43.5446C9.9375 43.9209 10.3077 44.2251 10.7656 44.2251H42.2344C42.6923 44.2251 43.0625 43.9209 43.0625 43.5446C43.0625 43.1682 42.6923 42.864 42.2344 42.864Z" fill="#F0CC8E"/>
<path d="M11.5938 12.9324C11.1358 12.9324 10.7656 13.2364 10.7656 13.6126V27.2178C10.7656 27.594 11.1358 27.8981 11.5938 27.8981C12.0517 27.8981 12.4219 27.594 12.4219 27.2178V13.6126C12.4219 13.2364 12.0517 12.9324 11.5938 12.9324Z" fill="#F0CC8E"/>
<path d="M41.4062 12.9324C40.9483 12.9324 40.5781 13.2364 40.5781 13.6126V27.2178C40.5781 27.594 40.9483 27.8981 41.4062 27.8981C41.8642 27.8981 42.2344 27.594 42.2344 27.2178V13.6126C42.2344 13.2364 41.8642 12.9324 41.4062 12.9324Z" fill="#F0CC8E"/>
<path d="M26.5 0.687744C26.042 0.687744 25.6719 0.991821 25.6719 1.368V10.2114C25.6719 10.5876 26.042 10.8917 26.5 10.8917C26.958 10.8917 27.3281 10.5876 27.3281 10.2114V1.368C27.3281 0.991821 26.958 0.687744 26.5 0.687744Z" fill="#F0CC8E"/>
<path d="M26.5 9.53125C26.042 9.53125 25.6719 9.83533 25.6719 10.2115C25.6719 16.5883 19.3566 21.7759 11.5938 21.7759C11.1358 21.7759 10.7656 22.08 10.7656 22.4562C10.7656 22.8324 11.1358 23.1365 11.5938 23.1365C20.27 23.1365 27.3281 17.3386 27.3281 10.2115C27.3281 9.83533 26.958 9.53125 26.5 9.53125Z" fill="#F0CC8E"/>
<path d="M41.4062 21.7759C33.6434 21.7759 27.3281 16.5883 27.3281 10.2115C27.3281 9.83533 26.958 9.53125 26.5 9.53125C26.042 9.53125 25.6719 9.83533 25.6719 10.2115C25.6719 17.3386 32.73 23.1365 41.4062 23.1365C41.8642 23.1365 42.2344 22.8324 42.2344 22.4562C42.2344 22.08 41.8642 21.7759 41.4062 21.7759Z" fill="#F0CC8E"/>
<path d="M36.4375 21.0793C35.9795 21.0793 35.6094 21.3834 35.6094 21.7596V27.218C35.6094 27.5942 35.9795 27.8983 36.4375 27.8983C36.8955 27.8983 37.2656 27.5942 37.2656 27.218V21.7596C37.2656 21.3834 36.8955 21.0793 36.4375 21.0793Z" fill="#F0CC8E"/>
<path d="M16.5625 21.0793C16.1045 21.0793 15.7344 21.3834 15.7344 21.7596V27.218C15.7344 27.5942 16.1045 27.8983 16.5625 27.8983C17.0205 27.8983 17.3906 27.5942 17.3906 27.218V21.7596C17.3906 21.3834 17.0205 21.0793 16.5625 21.0793Z" fill="#F0CC8E"/>
<path d="M5.79688 21.0955C4.42716 21.0955 3.3125 22.0111 3.3125 23.1362C3.3125 24.2614 4.42716 25.177 5.79688 25.177C7.16659 25.177 8.28125 24.2614 8.28125 23.1362C8.28125 22.0111 7.16659 21.0955 5.79688 21.0955ZM5.79688 23.8165C5.33975 23.8165 4.96875 23.5117 4.96875 23.1362C4.96875 22.7607 5.33975 22.456 5.79688 22.456C6.254 22.456 6.625 22.7607 6.625 23.1362C6.625 23.5117 6.254 23.8165 5.79688 23.8165Z" fill="#F0CC8E"/>
<path d="M47.2031 21.0955C45.8334 21.0955 44.7188 22.0111 44.7188 23.1362C44.7188 24.2614 45.8334 25.177 47.2031 25.177C48.5728 25.177 49.6875 24.2614 49.6875 23.1362C49.6875 22.0111 48.5728 21.0955 47.2031 21.0955ZM47.2031 23.8165C46.746 23.8165 46.375 23.5117 46.375 23.1362C46.375 22.7607 46.746 22.456 47.2031 22.456C47.6602 22.456 48.0312 22.7607 48.0312 23.1362C48.0312 23.5117 47.6602 23.8165 47.2031 23.8165Z" fill="#F0CC8E"/>
<path d="M5.79688 23.8167C5.33892 23.8167 4.96875 24.1207 4.96875 24.4969V41.5034C4.96875 41.8796 5.33892 42.1837 5.79688 42.1837C6.25483 42.1837 6.625 41.8796 6.625 41.5034V24.4969C6.625 24.1207 6.25483 23.8167 5.79688 23.8167Z" fill="#F0CC8E"/>
<path d="M47.2031 23.8167C46.7452 23.8167 46.375 24.1207 46.375 24.4969V41.5034C46.375 41.8796 46.7452 42.1837 47.2031 42.1837C47.6611 42.1837 48.0312 41.8796 48.0312 41.5034V24.4969C48.0312 24.1207 47.6611 23.8167 47.2031 23.8167Z" fill="#F0CC8E"/>
</g>
<defs>
<clipPath id="clip0">
<rect y="0.687744" width="53" height="43.5367" fill="white"/>
</clipPath>
</defs>
</svg>
