<svg width="50" height="50" viewBox="0 0 50 50" fill="none" xmlns="http://www.w3.org/2000/svg">
<path d="M27.3285 13.2812C27.3285 11.9974 26.284 10.9529 25 10.9529C23.7161 10.9529 22.6716 11.9974 22.6716 13.2812C22.6716 14.565 23.7161 15.6095 25 15.6095C26.284 15.6095 27.3285 14.565 27.3285 13.2812ZM25 14.0779C24.5607 14.0779 24.2033 13.7205 24.2033 13.2812C24.2033 12.8419 24.5607 12.4845 25 12.4845C25.4394 12.4845 25.7968 12.8419 25.7968 13.2812C25.7968 13.7205 25.4394 14.0779 25 14.0779Z" fill="#F0CC8E"/>
<path d="M31.2654 46.0783H35.1408V37.5154H31.2654V46.0783ZM32.797 39.047H33.6091V42.2029H32.797V39.047ZM32.797 43.7345H33.6091V44.5466H32.797V43.7345Z" fill="#F0CC8E"/>
<path d="M40.6095 37.5154H36.7341V46.0783H40.6095V37.5154ZM39.0779 44.5466H38.2658V42.9534H39.0779V44.5466ZM39.0779 41.4216H38.2658V39.0471H39.0779V41.4216Z" fill="#F0CC8E"/>
<path d="M9.39038 46.0783H13.2658V37.5154H9.39038V46.0783ZM10.922 39.047H11.7341V41.4215H10.922V39.047ZM10.922 42.9533H11.7341V44.5465H10.922V42.9533Z" fill="#F0CC8E"/>
<path d="M14.8591 46.0783H18.7345V37.5154H14.8591V46.0783ZM16.3907 39.047H17.2028V41.4215H16.3907V39.047ZM16.3907 42.9533H17.2028V44.5465H16.3907V42.9533Z" fill="#F0CC8E"/>
<path d="M20.3279 46.0783H24.2033V37.5154H20.3279V46.0783ZM21.8595 39.047H22.6716V41.4215H21.8595V39.047ZM21.8595 42.9533H22.6716V44.5465H21.8595V42.9533Z" fill="#F0CC8E"/>
<path d="M25.7968 46.0783H29.6721V37.5154H25.7968V46.0783ZM27.3284 39.047H28.1405V39.8591H27.3284V39.047ZM27.3284 41.3907H28.1405V44.5465H27.3284V41.3907Z" fill="#F0CC8E"/>
<path d="M9.39038 25.7658H13.2658V17.2029H9.39038V25.7658ZM10.922 18.7345H11.7341V21.8904H10.922V18.7345ZM10.922 23.4219H11.7341V24.2341H10.922V23.4219Z" fill="#F0CC8E"/>
<path d="M9.39038 35.922H13.2658V27.3591H9.39038V35.922ZM10.922 28.8907H11.7341V29.7029H10.922V28.8907ZM10.922 31.2345H11.7341V34.3904H10.922V31.2345Z" fill="#F0CC8E"/>
<path d="M14.8591 25.7658H18.7345V17.2029H14.8591V25.7658ZM16.3907 18.7345H17.2028V20.3279H16.3907V18.7345ZM16.3907 21.8595H17.2028V24.2341H16.3907V21.8595Z" fill="#F0CC8E"/>
<path d="M14.8591 35.922H18.7345V27.3591H14.8591V35.922ZM16.3907 28.8907H17.2028V29.7029H16.3907V28.8907ZM16.3907 31.2345H17.2028V34.3904H16.3907V31.2345Z" fill="#F0CC8E"/>
<path d="M20.3279 25.7658H24.2033V17.2029H20.3279V25.7658ZM21.8595 18.7345H22.6716V20.3279H21.8595V18.7345ZM21.8595 21.8595H22.6716V24.2341H21.8595V21.8595Z" fill="#F0CC8E"/>
<path d="M20.3279 35.922H24.2033V27.3591H20.3279V35.922ZM21.8595 28.8907H22.6716V32.0465H21.8595V28.8907ZM21.8595 33.5783H22.6716V34.3905H21.8595V33.5783Z" fill="#F0CC8E"/>
<path d="M25.7968 25.7658H29.6721V17.2029H25.7968V25.7658ZM27.3284 18.7345H28.1405V19.5467H27.3284V18.7345ZM27.3284 21.0783H28.1405V24.2341H27.3284V21.0783Z" fill="#F0CC8E"/>
<path d="M25.7968 35.922H29.6721V27.3591H25.7968V35.922ZM27.3284 28.8907H28.1405V30.4839H27.3284V28.8907ZM27.3284 32.0158H28.1405V34.3904H27.3284V32.0158Z" fill="#F0CC8E"/>
<path d="M31.2654 25.7658H35.1408V17.2029H31.2654V25.7658ZM32.797 18.7345H33.6091V21.8904H32.797V18.7345ZM32.797 23.4219H33.6091V24.2341H32.797V23.4219Z" fill="#F0CC8E"/>
<path d="M31.2654 35.922H35.1408V27.3591H31.2654V35.922ZM32.797 28.8907H33.6091V31.2653H32.797V28.8907ZM32.797 32.797H33.6091V34.3904H32.797V32.797Z" fill="#F0CC8E"/>
<path d="M40.6095 17.2029H36.7341V25.7658H40.6095V17.2029ZM39.0779 24.2341H38.2658V23.4219H39.0779V24.2341ZM39.0779 21.8903H38.2658V18.7344H39.0779V21.8903Z" fill="#F0CC8E"/>
<path d="M40.6095 27.3591H36.7341V35.922H40.6095V27.3591ZM39.0779 34.3904H38.2658V31.2345H39.0779V34.3904ZM39.0779 29.7029H38.2658V28.8907H39.0779V29.7029Z" fill="#F0CC8E"/>
<path d="M45.2971 48.453V13.2967H36.1625L25 6.12085L13.8375 13.2966H4.70293V48.4529H0V49.9845H50V48.4529H45.2971V48.453ZM43.7654 42.203H41.4062V43.7346H43.7653V48.453H6.23457V43.7346H8.59375V42.203H6.23457V14.8284H14.2874L25 7.94165L35.7126 14.8283H43.7654V42.203Z" fill="#F0CC8E"/>
<path d="M13.2816 3.92188H11.719V5.45352H13.2816V3.92188Z" fill="#F0CC8E"/>
<path d="M12.4999 7.04663H7.81238V8.57827H12.4999V7.04663Z" fill="#F0CC8E"/>
<path d="M19.5308 2.35864H16.4059V3.89028H19.5308V2.35864Z" fill="#F0CC8E"/>
<path d="M35.9373 2.35864H29.6873V3.89028H35.9373V2.35864Z" fill="#F0CC8E"/>
<path d="M38.281 3.92188H35.9373V5.45352H38.281V3.92188Z" fill="#F0CC8E"/>
<path d="M39.8433 7.04663H38.2808V8.57827H39.8433V7.04663Z" fill="#F0CC8E"/>
<path d="M3.9062 14.8591H2.32827V11.7033H5.4687V10.1716H3.21362L8.5937 3.81343V3.89067H11.7187V2.35903H9.82417L10.5114 1.54702H39.4885L42.82 5.48413H39.8437V7.01577H44.1159L44.8031 7.82788H42.9687V9.35952H46.0937V9.35307L46.7863 10.1716H44.5312V11.7033H47.6716V14.8591H46.0937V16.3907H49.2033V10.6569L40.1989 0.0153809H9.80102L0.796631 10.6569V16.3907H3.9062V14.8591Z" fill="#F0CC8E"/>
<path d="M7.03125 11.7032H13.4934L24.986 4.80747L35.7126 11.7032H42.9688V10.1715H36.1625L33.6839 8.57817H35.9375V7.04653H31.3014L25.014 3.00464L19.5312 6.29429V6.26528H15.625V7.79692H17.027L13.0691 10.1715H7.03125V11.7032Z" fill="#F0CC8E"/>
</svg>
