<svg width="194" height="198" viewBox="0 0 194 198" fill="none" xmlns="http://www.w3.org/2000/svg">
<path d="M5.39276 7.40283V170.208H16.8218V18.87H180.039V182.632H16.8218V182.631H5.39276V194.099H191.468V7.40283H5.39276Z" fill="#FFDFA8"/>
<path d="M98.4302 170.2C60.3468 170.2 29.3638 139.079 29.3638 100.827C29.3638 62.5748 60.3468 31.4536 98.4302 31.4536C136.514 31.4536 167.496 62.5744 167.496 100.827C167.496 139.079 136.514 170.2 98.4302 170.2ZM98.4302 42.9334C66.6487 42.9334 40.7929 68.9043 40.7929 100.827C40.7929 132.749 66.6487 158.72 98.4302 158.72C130.212 158.72 156.067 132.749 156.067 100.827C156.067 68.9043 130.212 42.9334 98.4302 42.9334Z" fill="#FFDFA8"/>
<g opacity="0.9">
<g opacity="0.9">
<g opacity="0.9">
<path opacity="0.9" d="M70.5 151.494H52.1533V152.131C59.7727 159.62 68.8302 164.911 78.4519 168.313H92.5359L96 159C93.5 159.5 73.5 154 70.5 151.494Z" fill="url(#paint0_linear)"/>
</g>
</g>
</g>
<path d="M99.6325 158.733H5.34918V170.2H99.6325V158.733Z" fill="#FFDFA8"/>
<defs>
<linearGradient id="paint0_linear" x1="72.3446" y1="168.313" x2="72.3446" y2="151.494" gradientUnits="userSpaceOnUse">
<stop/>
<stop offset="1" stop-opacity="0"/>
</linearGradient>
</defs>
</svg>
