<svg width="45" height="41" viewBox="0 0 45 41" fill="none" xmlns="http://www.w3.org/2000/svg">
<path d="M0.0148926 0.353271V39.7637L0.369272 39.9596C0.819935 40.2123 1.34345 40.3431 1.87612 40.3356H1.89223C2.71814 40.3304 3.50597 40.0259 4.07342 39.4931C4.36776 39.1805 4.80048 38.9974 5.25883 38.9909H5.26835C5.72451 38.9964 6.1554 39.176 6.45157 39.484C7.02085 40.009 7.80502 40.3073 8.62544 40.3102H8.64082C9.18008 40.3167 9.70908 40.1821 10.1623 39.9231L10.5116 39.7267V36.3262H34.504V39.7267L34.8532 39.9231C35.3064 40.1817 35.8354 40.3164 36.374 40.3102H36.3886C37.2098 40.3073 37.9943 40.009 38.5639 39.484C38.8601 39.1763 39.291 38.9964 39.7464 38.9909H39.756C40.2147 38.9974 40.6478 39.1805 40.9421 39.4931C41.5095 40.0259 42.297 40.3301 43.1226 40.3356H43.1387C43.6717 40.3434 44.1956 40.2126 44.6462 39.9596L45.0006 39.7637V0.353271H0.0148926ZM39.0025 24.3014V25.7209C36.4238 26.053 34.5091 28.0154 34.504 30.3307V32.3292H24.757V4.35027H28.5059V14.3428C28.5154 19.5976 33.1018 23.9488 39.0025 24.3014ZM6.01299 24.3014C11.9141 23.9488 16.5005 19.5976 16.5097 14.3428V4.35027H20.2585V24.5607L16.3244 20.5659L15.1954 21.4429L20.2585 26.5842V28.5307L17.0786 25.2343L15.9408 26.1008L20.2585 30.5766V32.3292H10.5116V30.3307C10.5068 28.0154 8.59213 26.053 6.01299 25.7209V24.3014ZM21.758 4.35027H23.2575V32.3292H21.758V4.35027ZM16.5097 1.6856H28.5059V3.01794H16.5097V1.6856ZM1.51442 1.6856H15.0101V4.22666L15.001 4.23219C14.8597 4.30798 14.7271 4.38572 14.5972 4.46216C13.5143 5.20119 12.0071 5.20119 10.9238 4.46216C10.1575 3.94595 9.21888 3.67207 8.25715 3.6841C7.29652 3.67207 6.35858 3.94595 5.59271 4.46216C5.07396 4.83233 4.42487 5.02847 3.75931 5.01643C3.09375 5.02847 2.4443 4.83233 1.92444 4.46216C1.79521 4.38572 1.66305 4.30798 1.5221 4.23219L1.51442 4.22796V1.6856ZM1.51442 5.81141L1.53016 5.81889C1.64511 5.87939 1.76885 5.93827 1.90065 5.99454C1.9292 6.00657 1.95886 6.01763 1.98778 6.02934C2.1214 6.08301 2.25796 6.12985 2.39744 6.16954C2.41647 6.17507 2.43332 6.18157 2.45308 6.18678C2.62478 6.23166 2.80014 6.26679 2.97733 6.29119C3.02163 6.2977 3.06703 6.3029 3.11279 6.30843C3.32732 6.33445 3.54331 6.34811 3.75931 6.34876C4.72068 6.3608 5.65898 6.08692 6.42448 5.5707C6.94324 5.20054 7.59232 5.0044 8.25715 5.01643C8.92308 5.00407 9.57253 5.20021 10.092 5.5707C10.8586 6.08692 11.7973 6.3608 12.7587 6.34876C12.9761 6.34811 13.1932 6.33445 13.4081 6.3081C13.4535 6.3029 13.4989 6.2977 13.5425 6.29119C13.7204 6.26647 13.8961 6.23166 14.0689 6.18613C14.0887 6.18092 14.1062 6.17442 14.1257 6.16889C14.2659 6.12855 14.4028 6.08171 14.5368 6.02772C14.565 6.01633 14.5939 6.00592 14.6213 5.99421C14.7542 5.93761 14.8787 5.87809 14.9948 5.81694L15.0101 5.80946V14.3428C15.0039 18.1664 12.1799 21.5353 8.05873 22.6357C9.2943 21.3726 10.5116 19.2284 10.5116 15.6751H9.01204C9.01204 21.2737 5.73805 22.7703 5.12082 23.0029H1.51442V5.81141ZM1.51442 24.3352H4.51347V25.6676H1.51442V24.3352ZM3.56199 26.9999C4.08843 27.2959 6.01299 28.5876 6.01299 31.6631H7.51251C7.57695 29.9964 6.97765 28.3628 5.82006 27.05C7.65053 27.2923 9.00691 28.6865 9.01204 30.3307V34.9623C8.99483 34.9666 8.97616 34.9701 8.95749 34.9737C8.91649 34.9812 8.87549 34.989 8.82899 34.9939C8.81032 34.9958 8.78835 34.9962 8.76859 34.9978C8.72026 35.0014 8.67084 35.0053 8.62617 35.0063C8.17039 35.0007 7.73949 34.8212 7.44296 34.5131C6.86819 33.9868 6.07852 33.6892 5.25298 33.6869C4.42743 33.6925 3.63996 33.9966 3.07252 34.5294C2.77781 34.842 2.34472 35.0251 1.88564 35.0316C1.88234 35.032 1.87978 35.0313 1.87648 35.0316C1.75458 35.0326 1.63303 35.0202 1.51442 34.9945V26.9999H3.56199ZM9.01204 38.9369C8.88537 38.9619 8.75614 38.9756 8.62617 38.9779C8.17039 38.9724 7.73949 38.7928 7.44296 38.4848C6.87368 37.9594 6.08877 37.6615 5.26762 37.6586H5.25298C4.42743 37.6641 3.63996 37.9682 3.07252 38.501C2.77781 38.8136 2.34472 38.9967 1.88564 39.0033H1.87758C1.75531 39.0046 1.6334 38.9919 1.51442 38.9662V36.3464C1.60557 36.3555 1.70186 36.3575 1.79521 36.3594C1.82304 36.3601 1.8483 36.364 1.87612 36.364H1.89223C2.71814 36.3588 3.50597 36.0543 4.07342 35.5215C4.36776 35.2089 4.80048 35.0258 5.25883 35.0193H5.26835C5.72451 35.0248 6.1554 35.2043 6.45157 35.5124C6.56323 35.5999 6.68477 35.6952 6.82243 35.7889C7.33313 36.1532 7.97087 36.3477 8.62544 36.3386H8.64082C8.67194 36.3386 8.70013 36.334 8.73051 36.3334C8.82533 36.3298 8.92125 36.3285 9.01204 36.3191V38.9369ZM10.5116 33.6616H34.504V34.9939H10.5116V33.6616ZM43.5011 38.9662C43.3979 38.9896 43.2756 38.9831 43.1292 39.0033C42.6708 38.9967 42.2377 38.8133 41.9434 38.501C41.3756 37.9682 40.5877 37.6638 39.7618 37.6586H39.7472C38.9267 37.6615 38.1422 37.9591 37.5726 38.4841C37.2764 38.7928 36.8448 38.9727 36.3879 38.9779C36.259 38.9714 36.1305 38.9577 36.0035 38.9369V36.3191C36.1247 36.3314 36.2462 36.3379 36.3677 36.3383L36.374 36.3386H36.3886L36.4084 36.3376C37.2248 36.3402 38.0057 36.0416 38.5639 35.5124C38.8601 35.2047 39.291 35.0248 39.7464 35.0193H39.756C40.2147 35.0258 40.6478 35.2089 40.9421 35.5215C41.5095 36.0543 42.297 36.3584 43.1226 36.364H43.1387L43.1427 36.3636C43.2624 36.3662 43.3825 36.3604 43.5011 36.3464V38.9662ZM43.5011 34.9913L43.4692 34.9978C43.358 35.0202 43.2437 35.0316 43.1292 35.0316C42.6708 35.0251 42.2377 34.8417 41.9434 34.5294C41.3756 33.9966 40.5877 33.6921 39.7622 33.6869H39.7475L39.7263 33.6882C38.9103 33.684 38.1298 33.9826 37.5729 34.5125C37.4781 34.587 37.391 34.655 37.3057 34.7151C37.052 34.9116 36.7243 35.0157 36.3882 35.0063C36.3615 35.0056 36.3414 35.0033 36.3169 35.0024C36.2638 35.0004 36.2122 34.9981 36.166 34.9926C36.1327 34.989 36.1038 34.9825 36.0738 34.977C36.0496 34.9728 36.0262 34.9679 36.0038 34.9623V30.3307C36.009 28.6865 37.3654 27.2923 39.1958 27.05C38.0382 28.3628 37.4389 29.9964 37.503 31.6631H39.0025C39.0025 28.5918 40.911 27.3034 41.4528 26.9999H43.5011V34.9913ZM43.5011 25.6676H40.5021V24.3352H43.5011V25.6676ZM39.8954 23.0029C39.3141 22.782 36.0035 21.2789 36.0035 15.6751H34.504C34.504 19.2284 35.7216 21.3726 36.9572 22.6357C32.8357 21.5353 30.012 18.1664 30.0054 14.3428V5.80946L30.0215 5.81694C30.1372 5.87809 30.2616 5.93761 30.3945 5.99421C30.422 6.00592 30.4509 6.01633 30.4791 6.02772C30.6131 6.08171 30.7504 6.12855 30.8902 6.16889C30.9096 6.17442 30.9272 6.18092 30.947 6.18613C31.1198 6.23134 31.2955 6.26647 31.4734 6.29119C31.517 6.2977 31.5624 6.3029 31.6078 6.3081C31.823 6.33445 32.0398 6.34811 32.2569 6.34876C33.2186 6.3608 34.1573 6.08692 34.9235 5.5707C36.0046 4.83168 37.5103 4.83168 38.591 5.5707C39.3569 6.08692 40.2952 6.3608 41.2562 6.34876C41.4726 6.34811 41.6886 6.33478 41.9031 6.30843C41.9489 6.30323 41.9946 6.2977 42.0386 6.29152C42.2157 6.26679 42.3911 6.23199 42.5628 6.18678C42.5826 6.18157 42.5994 6.17507 42.6184 6.16954C42.7579 6.12985 42.8945 6.08301 43.0277 6.02967C43.057 6.01763 43.087 6.00657 43.1152 5.99454C43.2474 5.93827 43.3708 5.87939 43.4857 5.81889L43.5011 5.81141V23.0029H39.8954ZM43.5011 1.6856V4.22796L43.4938 4.23219C43.3528 4.30798 43.2207 4.38572 43.0911 4.46216C42.01 5.20119 40.5042 5.20119 39.4228 4.46216C37.8376 3.42486 35.6773 3.42486 34.0917 4.46216C33.0088 5.20119 31.5016 5.20119 30.4183 4.46216C30.2887 4.38572 30.1562 4.30798 30.0149 4.23219L30.0054 4.22666V1.6856H43.5011Z" fill="#F0CC8E"/>
</svg>
